<svg id="Layer_1" data-name="Layer 1" xmlns="http://www.w3.org/2000/svg" viewBox="0 0 248.47 48.34"><defs><style>.cls-1{fill:#231f20;}.cls-2{fill:#fffef8;}</style></defs><title>Card Slammer Logo</title><path class="cls-1" d="M10,48.75c-4.18-1.65-7.08-3.84-8.62-6.49l-.2-.35V41.5A27.53,27.53,0,0,1,4.42,29.31c2.21-4.43,4.79-7.43,7.65-8.91l.33-.17h.37c1.09,0,2.33.06,3.67.19a54.84,54.84,0,0,0,8.76-1.11L29,18.46l-.75,2.45a101.81,101.81,0,0,0-3,13.3L25,35.71l1.27-.34v2a7,7,0,0,1-1.14,3.35,12.81,12.81,0,0,1-2.57,3.25,17.9,17.9,0,0,1-4.64,2.8,29.54,29.54,0,0,1-7.15,2.11l-.42.07ZM16.74,31.2a24.77,24.77,0,0,0-2.89,7.49l10.52-2.81-1.22-.54A24.07,24.07,0,0,1,16.74,31.2Z" transform="translate(0.36 -8.12)"/><path class="cls-2" d="M26.83,20.48A103.08,103.08,0,0,0,23.76,34a22.3,22.3,0,0,1-7.3-5.14A26.41,26.41,0,0,0,12,40.74l12.77-3.41a5.91,5.91,0,0,1-.94,2.61,11.6,11.6,0,0,1-2.28,2.88,16.7,16.7,0,0,1-4.25,2.55,28.06,28.06,0,0,1-6.79,2q-5.8-2.31-7.87-5.86A26,26,0,0,1,5.76,30q3.12-6.24,7-8.25c1.08,0,2.3.06,3.64.19a55.42,55.42,0,0,0,9.12-1.15l1.3-.29m4.36-4-5,1.11-1.3.29a50.91,50.91,0,0,1-8.41,1.07c-1.35-.12-2.59-.18-3.7-.18H12l-.65.33c-3.2,1.66-5.91,4.8-8.31,9.58A29.06,29.06,0,0,0-.36,41.5v.81L0,43c1.72,3,4.87,5.35,9.36,7.14l.79.31.83-.14a31.12,31.12,0,0,0,7.52-2.22,19.29,19.29,0,0,0,5-3.06,14.74,14.74,0,0,0,2.87-3.62,8.48,8.48,0,0,0,1.33-4.09V33.42l-.92.25A100.31,100.31,0,0,1,29.7,21.35l1.49-4.91ZM16,36.57a24.16,24.16,0,0,1,1.23-3,24.83,24.83,0,0,0,2.9,1.94L16,36.57Z" transform="translate(0.36 -8.12)"/><path class="cls-1" d="M40.21,47.86a6,6,0,0,1-3.88-2.72,13.27,13.27,0,0,1-1.35,1,6.2,6.2,0,0,1-3.35,1.26,6.94,6.94,0,0,1-5.21-2.5,7.32,7.32,0,0,1-2.24-4.86A12.56,12.56,0,0,1,25,35.67a17.75,17.75,0,0,1,2.36-4.29,12.1,12.1,0,0,1,4.26-3.57A11.49,11.49,0,0,1,37,26.42a10,10,0,0,1,2.55.28l1.22-2.43,1.26.47a11.55,11.55,0,0,1,3.42,2,9.71,9.71,0,0,1,2.08,2.2l.83,1.32-.17.63a20.89,20.89,0,0,1-2.58,5.79l-.3.48v.3A22,22,0,0,0,46.16,44l.4,1.26L40.71,48Zm-4-12.77a10.6,10.6,0,0,0-.94,1.39,11.12,11.12,0,0,0-1.15,2.72,7,7,0,0,0,1.41-1.1A30,30,0,0,1,36.18,35.09Z" transform="translate(0.36 -8.12)"/><path class="cls-2" d="M41.47,26.14a10.3,10.3,0,0,1,3,1.71,8.52,8.52,0,0,1,1.77,1.85l.48.76a19,19,0,0,1-2.4,5.38l-.53.86v.72a23.41,23.41,0,0,0,1,7.06L40.56,46.4a4.58,4.58,0,0,1-3.65-3.94,13.56,13.56,0,0,1-2.76,2.45,4.94,4.94,0,0,1-2.52,1,5.45,5.45,0,0,1-4.1-2,5.82,5.82,0,0,1-1.85-3.84,10.81,10.81,0,0,1,.77-3.86,16.42,16.42,0,0,1,2.16-3.94,10.61,10.61,0,0,1,3.74-3.12A10,10,0,0,1,37,27.92a5.72,5.72,0,0,1,3.26.72l1.25-2.5m-2.06,4.37a13.78,13.78,0,0,0-5.48,5.23,9.67,9.67,0,0,0-1.48,4.56,4.28,4.28,0,0,0,.09.87h.1c1.34,0,2.76-.79,4.27-2.35a32.63,32.63,0,0,1,2.5-8.31M40,22.39l-1.2,2.41-.11.22a13.38,13.38,0,0,0-1.72-.1,13.06,13.06,0,0,0-6,1.56,13.64,13.64,0,0,0-4.77,4,19.14,19.14,0,0,0-2.55,4.65,14,14,0,0,0-1,4.92,8.72,8.72,0,0,0,2.63,5.87,8.45,8.45,0,0,0,6.32,3,7.65,7.65,0,0,0,4.18-1.51l.26-.17a7.77,7.77,0,0,0,3.79,2.08l1,.24.94-.43L46,47.21,48.4,46.1l-.81-2.53a20.52,20.52,0,0,1-.82-6l.08-.12a22.19,22.19,0,0,0,2.75-6.2L49.93,30l-.68-1.1-.48-.76a11.45,11.45,0,0,0-2.4-2.57,13.25,13.25,0,0,0-3.86-2.21L40,22.39Z" transform="translate(0.36 -8.12)"/><path class="cls-1" d="M54.34,47.53a19.37,19.37,0,0,1-3.85-1.33,27.07,27.07,0,0,1-3-1.55L45.73,43.5l.11-.92a137.17,137.17,0,0,1,2.42-14.17l.84-3.91,1.48.32a26.11,26.11,0,0,1,3.79,1.12,16.45,16.45,0,0,1,2.48,1.13l.11.08.92.69c.24-.47,1.54-3.09,1.54-3.09l8.4,6.47-.76,1.17a7.8,7.8,0,0,0-.94,2.69,17.16,17.16,0,0,0-.4,3.11c0,.83,0,1.5,0,2l.11,1.85-1.83-.27a11.73,11.73,0,0,1-3.94-1.3,10.7,10.7,0,0,1-1.88-1.27,23.58,23.58,0,0,0-2,2.69c0,1.72-.08,3.12-.08,4.15v1.87Z" transform="translate(0.36 -8.12)"/><path class="cls-2" d="M50.25,26.29a25,25,0,0,1,3.58,1.05,16.93,16.93,0,0,1,2.23,1l.58.43a42.32,42.32,0,0,0-1.54,8.4Q56.26,34.5,60,27.06l5.86,4.51a9.49,9.49,0,0,0-1.16,3.21,18.58,18.58,0,0,0-.43,3.41c0,.87,0,1.57,0,2.11a10,10,0,0,1-3.43-1.12,7.13,7.13,0,0,1-2.09-1.56l-.53-.72a28.5,28.5,0,0,0-3.45,4.6c-.07,1.92-.1,3.44-.1,4.56a17.2,17.2,0,0,1-3.55-1.22,28,28,0,0,1-2.83-1.46l-1-.63a134.14,134.14,0,0,1,2.4-14l.52-2.45m8.64-3.84-1.57,3.16a22,22,0,0,0-2.4-1.06,28,28,0,0,0-4-1.19L48,22.71l-.64,2.95-.53,2.44a138.76,138.76,0,0,0-2.44,14.3l-.22,1.85,1.56,1,1,.62,0,0,0,0a30.15,30.15,0,0,0,3.15,1.63A20.33,20.33,0,0,0,54,49l3.65.81V46.06c0-.94,0-2.18.07-3.7.17-.27.42-.62.77-1.08l.87.52a13.06,13.06,0,0,0,4.44,1.47l3.66.55-.22-3.69c0-.48,0-1.13,0-1.94a15.47,15.47,0,0,1,.37-2.81,6.52,6.52,0,0,1,.73-2.17l1.51-2.33-2.19-1.69-5.86-4.51-2.89-2.23Z" transform="translate(0.36 -8.12)"/><path class="cls-1" d="M72.22,48.05a9.94,9.94,0,0,1-5.8-3.73,9.35,9.35,0,0,1-2.07-5.5,10.72,10.72,0,0,1,1.57-5.34,15.86,15.86,0,0,1,4.29-4.72,10.05,10.05,0,0,1,6.11-2.2A3.26,3.26,0,0,1,78,27l1.3-6.92L80.33,20a76.85,76.85,0,0,0,8.44-1.6l3.61-.83-.54,2.34a127.42,127.42,0,0,1-4.32,13.42l-1,2.9.32,10.71H85.25a13.83,13.83,0,0,1-1.41-.08,11.06,11.06,0,0,1-3-.92,8.85,8.85,0,0,1-2.4-1.46,31.77,31.77,0,0,1-4.33,3l-1.29.72ZM76.6,36a11.2,11.2,0,0,0-1.08,1.77c-.3.59-.54,1.13-.75,1.62.52-.47,1-1,1.61-1.59Z" transform="translate(0.36 -8.12)"/><path class="cls-2" d="M90.38,19.52a126.65,126.65,0,0,1-4.27,13.25L85,35.94l.29,9.45c-.32,0-.75,0-1.28-.07a10.53,10.53,0,0,1-2.59-.82,6.59,6.59,0,0,1-2.85-2.13,32.44,32.44,0,0,1-5.19,3.79l-.77.43a8.35,8.35,0,0,1-4.94-3.17,7.84,7.84,0,0,1-1.78-4.6,9.23,9.23,0,0,1,1.37-4.59A14.3,14.3,0,0,1,71.11,30a8.58,8.58,0,0,1,5.21-1.9c.93,0,1.77.79,2.54,2.36l1.68-9a81.61,81.61,0,0,0,8.59-1.63l1.25-.29M78.53,32.67q-2.55.82-4.35,4.39a13.88,13.88,0,0,0-1.8,5.79,18.29,18.29,0,0,0,5.43-4.42l.72-5.76M94.38,15.52,89.71,16.6l-1.25.28H88.4a78.57,78.57,0,0,1-8.27,1.57l-2.14.3-.4,2.12-.78,4.2-.49,0a11.5,11.5,0,0,0-7,2.5,17.54,17.54,0,0,0-4.69,5.17,12.24,12.24,0,0,0-1.77,6.09,10.76,10.76,0,0,0,2.37,6.39,11.31,11.31,0,0,0,6.65,4.3l1.14.27,1-.57.77-.44a29.92,29.92,0,0,0,3.62-2.44,11.48,11.48,0,0,0,1.81,1,12.64,12.64,0,0,0,3.46,1c.62,0,1.13.08,1.55.08h3.09l-.1-3.09L88,36.42l1-2.63a125.52,125.52,0,0,0,4.37-13.6l1.08-4.67Z" transform="translate(0.36 -8.12)"/><path class="cls-1" d="M92.3,51.26a23.63,23.63,0,0,0,2.24-5.54c-.5.05-1,.08-1.52.11l-.68,0-.47-.47a18.25,18.25,0,0,1-2.67-3.75A25.9,25.9,0,0,1,87,36.78l-.77-2.35,2.44.41c2.42.41,4.51.67,6.26.8a10.76,10.76,0,0,1-3.62-1.27,5.77,5.77,0,0,1-2.8-5.06c0-3.52,1.92-6.25,5.71-8.11a18,18,0,0,1,2.35-1,3.81,3.81,0,0,1-1-1.59,5.12,5.12,0,0,1-.26-1.53,12.36,12.36,0,0,1,.54-3.56l.26-.85,11.14-2.32-2.32,3.15A17.93,17.93,0,0,0,102.22,19a50.43,50.43,0,0,1,6.26-.36h1.3l1.85,12.94L109.41,31a32.06,32.06,0,0,0-4-.83,12.79,12.79,0,0,1,3,1.38A5.06,5.06,0,0,1,111,35.94c0,2.35-1.29,4.47-3.84,6.3a18,18,0,0,1-6.69,2.65,4.8,4.8,0,0,1,1,3.09,11.44,11.44,0,0,1-.49,3.1l-.24.86L90.58,54.23Z" transform="translate(0.36 -8.12)"/><path class="cls-2" d="M103.68,12.66A19.86,19.86,0,0,0,100.41,20l-.29,0H100l-.53,0a3.49,3.49,0,0,1-.94-.21,3.28,3.28,0,0,1-.89-.58,2.21,2.21,0,0,1-.64-1,3.35,3.35,0,0,1-.19-1.06A10.43,10.43,0,0,1,97.25,14l6.43-1.34m4.8,7.48,1.34,9.36A54,54,0,0,0,97.29,28q0,2.21,6.15,3.21a11.5,11.5,0,0,1,4.17,1.59,3.61,3.61,0,0,1,1.92,3.17c0,1.85-1.07,3.55-3.21,5.08q-3.84,2.74-13.39,3.32A16.86,16.86,0,0,1,90.5,40.9a24.47,24.47,0,0,1-2.09-4.58,54.89,54.89,0,0,0,8.69.91q5,0,5-2.11-8-.72-10-2A4.24,4.24,0,0,1,90,29.31q0-4.36,4.87-6.77t13.61-2.4M96.72,44.67a3.38,3.38,0,0,1,2.4.91A3.28,3.28,0,0,1,100,48a10,10,0,0,1-.43,2.69L93.6,52a26.31,26.31,0,0,0,2.73-7.3l.39,0m14-36.55-7.67,1.6-6.43,1.34-1.74.37-.52,1.7a13.84,13.84,0,0,0-.6,4,6.27,6.27,0,0,0,.34,2c0,.14.09.27.15.4l-.72.33C88.13,22.52,87,26.47,87,29.31a7.37,7.37,0,0,0,1.07,3.91l-4-.68,1.54,4.71A27.63,27.63,0,0,0,87.9,42.4a20,20,0,0,0,2.91,4.06l1,.95.68,0A19.36,19.36,0,0,1,91,50.51l-3.43,5.94,6.69-1.51,5.95-1.34,1.74-.4.49-1.72A13.11,13.11,0,0,0,103,48a6.88,6.88,0,0,0-.3-2.09,17.46,17.46,0,0,0,5.38-2.42c3-2.13,4.47-4.67,4.47-7.53a6.46,6.46,0,0,0-.58-2.71l1.5.42-.66-4.57-1.34-9.36-.37-2.58h-2.6c-1.41,0-2.75.05-4,.14a15.24,15.24,0,0,1,1.64-2.85l4.63-6.31Z" transform="translate(0.36 -8.12)"/><path class="cls-1" d="M117.6,49.18c-3.76-1.54-6.4-3.19-8.08-5l-.44-.49.06-.65c.26-2.85.73-6,1.39-9.51s1.25-6.2,1.77-8.24l.92-3.63.53-.31a25.66,25.66,0,0,1,5-2.28,24.41,24.41,0,0,1,4.16-1.09l4.16-.56-1.15,2.48a63.81,63.81,0,0,0-3.14,8.28,63.81,63.81,0,0,0-1.88,7.66,70.55,70.55,0,0,0-1.18,10.46V50Z" transform="translate(0.36 -8.12)"/><path class="cls-2" d="M124.51,19.23a64.76,64.76,0,0,0-3.22,8.47,67.36,67.36,0,0,0-1.92,7.85,71.28,71.28,0,0,0-1.2,10.71v1.53q-5.28-2.16-7.53-4.65c.25-2.82.71-5.94,1.36-9.36s1.24-6.15,1.76-8.16l.76-3a24.09,24.09,0,0,1,4.66-2.13,23.32,23.32,0,0,1,3.89-1l1.44-.19m5-3.69-5.42.72-1.44.19a26.33,26.33,0,0,0-4.45,1.16A27.17,27.17,0,0,0,113,20l-1.06.63-.3,1.2-.77,3c-.53,2.07-1.13,4.87-1.79,8.33s-1.15,6.75-1.41,9.65l-.12,1.31.88,1c1.83,2,4.65,3.79,8.63,5.42l4.13,1.69v-6a68.73,68.73,0,0,1,1.16-10.21,63,63,0,0,1,1.83-7.48,62.2,62.2,0,0,1,3.07-8.08l2.3-4.95Z" transform="translate(0.36 -8.12)"/><path class="cls-1" d="M135.82,47.86a6,6,0,0,1-3.88-2.72,14.35,14.35,0,0,1-1.34,1,6.23,6.23,0,0,1-3.36,1.26,7,7,0,0,1-5.21-2.5,7.36,7.36,0,0,1-2.24-4.86,12.36,12.36,0,0,1,.87-4.39A17.71,17.71,0,0,1,123,31.38a12.18,12.18,0,0,1,4.26-3.57,11.52,11.52,0,0,1,5.3-1.39,10.12,10.12,0,0,1,2.56.28l1.21-2.43,1.27.47a11.5,11.5,0,0,1,3.41,2,9.57,9.57,0,0,1,2.09,2.2l.82,1.32-.16.63a20.64,20.64,0,0,1-2.59,5.79l-.29.48v.3a22,22,0,0,0,.89,6.61l.4,1.26L136.33,48Zm-4-12.77a11.69,11.69,0,0,0-.94,1.39,11,11,0,0,0-1.14,2.72,7.55,7.55,0,0,0,1.41-1.1A29.84,29.84,0,0,1,131.79,35.09Z" transform="translate(0.36 -8.12)"/><path class="cls-2" d="M137.08,26.14a10.17,10.17,0,0,1,3,1.71,8.62,8.62,0,0,1,1.78,1.85l.48.76a19,19,0,0,1-2.4,5.38l-.53.86v.72a23.41,23.41,0,0,0,1,7.06l-4.18,1.92a4.61,4.61,0,0,1-3.65-3.94,13.56,13.56,0,0,1-2.76,2.45,4.87,4.87,0,0,1-2.52,1,5.47,5.47,0,0,1-4.1-2,5.86,5.86,0,0,1-1.85-3.84,11,11,0,0,1,.77-3.86,16.42,16.42,0,0,1,2.16-3.94A10.79,10.79,0,0,1,128,29.14a10,10,0,0,1,4.61-1.22,5.76,5.76,0,0,1,3.27.72l1.24-2.5M135,30.51a13.75,13.75,0,0,0-5.47,5.23,9.7,9.7,0,0,0-1.49,4.56,3.69,3.69,0,0,0,.1.87h.09c1.35,0,2.77-.79,4.27-2.35a33.46,33.46,0,0,1,2.5-8.31m.59-8.12L134.4,24.8l-.11.22a13.17,13.17,0,0,0-1.72-.1,13,13,0,0,0-6,1.56,13.76,13.76,0,0,0-4.78,4,19.84,19.84,0,0,0-2.55,4.65,14.21,14.21,0,0,0-1,4.92,8.74,8.74,0,0,0,2.64,5.87,8.42,8.42,0,0,0,6.31,3,7.71,7.71,0,0,0,4.19-1.51l.25-.17a7.85,7.85,0,0,0,3.8,2.08l1,.24,1-.43,4.17-1.92L144,46.1l-.8-2.53a20.19,20.19,0,0,1-.82-6l.07-.12a22.23,22.23,0,0,0,2.76-6.2l.33-1.26-.69-1.1-.48-.76a11.22,11.22,0,0,0-2.4-2.57,13.2,13.2,0,0,0-3.85-2.21l-2.52-.94Z" transform="translate(0.36 -8.12)"/><path class="cls-1" d="M170.67,47.93c-3.62-.49-6.17-1.49-7.79-3l-.65-.62.24-.86a52.26,52.26,0,0,0,1.4-6.39c-.27.35-.54.73-.8,1.13-.29,1.41-.62,3.67-1,6.74l-.1.94-.9.31a20.22,20.22,0,0,1-6.39.8c-.48,0-1,0-1.45,0l-1.83-.13.49-1.77a51.69,51.69,0,0,0,1.6-7.47,23.14,23.14,0,0,0-1.75,3.38c-.18,2.18-.3,4-.36,5.28L151.32,48l-10-2.5.21-1.35c.88-5.87,1.41-10.57,1.56-14l.16-3.05,10.35-2.4-.65,3.83a10.7,10.7,0,0,1,1.16-.78,10.83,10.83,0,0,1,5.46-1.67h.8l.45.67a12,12,0,0,1,1.29,2.66,15.1,15.1,0,0,1,1.85-1.75,7,7,0,0,1,4.25-1.87c2.57,0,4.84,2.39,6.95,7.3l.29.69-.38.65a20,20,0,0,0-1.61,4.86,39.45,39.45,0,0,0-1.07,7.18l-.08,1.64Z" transform="translate(0.36 -8.12)"/><path class="cls-2" d="M151.72,26.72l-1.15,6.86a12.24,12.24,0,0,1,4.27-4.48,9.38,9.38,0,0,1,4.71-1.47,12.89,12.89,0,0,1,1.82,5.23,16.59,16.59,0,0,1,3.51-4,5.73,5.73,0,0,1,3.31-1.54c1.89,0,3.74,2.13,5.57,6.39A21.52,21.52,0,0,0,172,39a39.88,39.88,0,0,0-1.1,7.47q-4.9-.68-7-2.64a38,38,0,0,0,1.63-9.12v-.43l-.1-.87a13.69,13.69,0,0,0-3.79,4.18q-.48,2.16-1.06,7.15a19,19,0,0,1-5.9.72c-.45,0-.9,0-1.34,0A41.26,41.26,0,0,0,155.18,35a3.13,3.13,0,0,0-.05-.58l-.09-1a18.82,18.82,0,0,0-4.76,7.15c-.19,2.31-.32,4.16-.38,5.57L143,44.38q1.33-8.93,1.58-14.11l.1-1.92,7.05-1.63m3.71-3.94-4.38,1L144,25.43l-2.2.51-.12,2.26-.09,1.92c-.16,3.35-.68,8-1.56,13.82l-.4,2.69,2.64.66L149.17,49l3.56.89.07-1.55.34,0c.51,0,1,.06,1.56.06a21.71,21.71,0,0,0,6.87-.88l1.59-.54a17.59,17.59,0,0,0,7.31,2.4l3.23.44.17-3.26a37.37,37.37,0,0,1,1-6.91,18.59,18.59,0,0,1,1.45-4.46l.76-1.3-.6-1.38c-1.51-3.53-4-8.21-8.32-8.21a8.41,8.41,0,0,0-5.19,2.2l-.41.34c-.17-.32-.35-.62-.54-.91l-.9-1.34h-1.6a11.28,11.28,0,0,0-4.61,1.05l.49-2.9Z" transform="translate(0.36 -8.12)"/><path class="cls-1" d="M202.3,47.93c-3.62-.49-6.16-1.49-7.79-3l-.65-.62.24-.86A52.26,52.26,0,0,0,195.5,37c-.27.35-.53.73-.8,1.13-.29,1.41-.62,3.67-1,6.74l-.11.94-.9.31a20.22,20.22,0,0,1-6.39.8c-.48,0-1,0-1.45,0l-1.83-.13.49-1.77a51.69,51.69,0,0,0,1.6-7.47,23.14,23.14,0,0,0-1.75,3.38c-.18,2.18-.3,4-.36,5.28L183,48l-10-2.5.21-1.35c.88-5.87,1.41-10.57,1.57-14l.15-3.05,10.35-2.4-.64,3.83a9.69,9.69,0,0,1,1.15-.78,10.86,10.86,0,0,1,5.46-1.67h.8l.45.67a11.53,11.53,0,0,1,1.29,2.66,15.1,15.1,0,0,1,1.85-1.75,7,7,0,0,1,4.25-1.87c2.57,0,4.84,2.39,7,7.3l.29.69-.37.65a19.31,19.31,0,0,0-1.62,4.86A39.42,39.42,0,0,0,204,46.52l-.09,1.64Z" transform="translate(0.36 -8.12)"/><path class="cls-2" d="M183.36,26.72l-1.16,6.86a12.18,12.18,0,0,1,4.28-4.48,9.32,9.32,0,0,1,4.7-1.47A12.74,12.74,0,0,1,193,32.86a16.59,16.59,0,0,1,3.51-4,5.73,5.73,0,0,1,3.31-1.54c1.89,0,3.74,2.13,5.57,6.39A21.52,21.52,0,0,0,203.61,39a40.72,40.72,0,0,0-1.1,7.47q-4.9-.68-7-2.64a37.48,37.48,0,0,0,1.63-9.12v-.43l-.1-.87a13.69,13.69,0,0,0-3.79,4.18q-.48,2.16-1,7.15a19.09,19.09,0,0,1-5.91.72c-.45,0-.89,0-1.34,0A41.26,41.26,0,0,0,186.81,35a2.45,2.45,0,0,0-.05-.58l-.09-1a18.7,18.7,0,0,0-4.75,7.15c-.2,2.31-.32,4.16-.39,5.57l-6.91-1.73q1.35-8.93,1.58-14.11l.1-1.92,7.06-1.63m3.7-3.94-4.38,1-7.06,1.63-2.2.51-.12,2.26-.09,1.92c-.16,3.35-.68,8-1.56,13.82l-.4,2.69,2.64.66L180.8,49l3.56.89.07-1.55.34,0q.78.06,1.56.06a21.67,21.67,0,0,0,6.87-.88l1.59-.54a17.59,17.59,0,0,0,7.31,2.4l3.24.44.16-3.26a38.23,38.23,0,0,1,1-6.91A18.59,18.59,0,0,1,208,35.23l.76-1.3-.59-1.38c-1.51-3.53-4-8.21-8.33-8.21a8.41,8.41,0,0,0-5.19,2.2l-.41.34c-.17-.32-.35-.62-.54-.91l-.89-1.34h-1.61a11.32,11.32,0,0,0-4.61,1.05l.49-2.9Z" transform="translate(0.36 -8.12)"/><path class="cls-1" d="M214.6,48.75c-.53-.07-1.19-.19-2-.36a18.29,18.29,0,0,1-4-1.58,11.31,11.31,0,0,1-4.27-3.42l-.32-.45,0-.55a28.09,28.09,0,0,1,1.4-6.67,29,29,0,0,1,2.16-5.19l1.36-2.38.82,0a23.9,23.9,0,0,0,5-.81,21.13,21.13,0,0,0,3.61-1.24l2-1,.71.4a9,9,0,0,1,3.36,3.28,9.2,9.2,0,0,1,1.37,3.51l.26,1.64-.18.4a10.77,10.77,0,0,1-2,3l.48-.24.39,1.92a6.52,6.52,0,0,1,.12,1.21,7.21,7.21,0,0,1-2,4.73c-1.66,1.85-4.23,3.1-7.88,3.84l-.25.05Z" transform="translate(0.36 -8.12)"/><path class="cls-2" d="M220.46,26.72a7.54,7.54,0,0,1,2.81,2.74,7.68,7.68,0,0,1,1.17,2.92l.2,1.25a9.5,9.5,0,0,1-4.52,4.66,16.84,16.84,0,0,1-6.62,1.87c-.1.42-.19.93-.29,1.54.35,0,.9,0,1.63,0a15.48,15.48,0,0,0,3.36-.55A21.75,21.75,0,0,0,222,40l1.44-.72a4.92,4.92,0,0,1,.09.91,5.69,5.69,0,0,1-1.63,3.74q-2.11,2.35-7,3.36c-.48-.06-1.1-.17-1.85-.33a17.86,17.86,0,0,1-3.6-1.47,9.79,9.79,0,0,1-3.72-3A26.44,26.44,0,0,1,207,36.2a28.64,28.64,0,0,1,2-4.92l1-1.68a25.64,25.64,0,0,0,5.33-.86,22,22,0,0,0,3.88-1.35l1.3-.67M214,38a5,5,0,0,0,3.6-2.4A3.11,3.11,0,0,0,218.2,34a1.25,1.25,0,0,0-.4-1,1.45,1.45,0,0,0-1-.36,5.63,5.63,0,0,0-1.1.1c-.23.8-.8,2.54-1.73,5.23m6.55-14.69-1.45.75-1.3.67a19.86,19.86,0,0,1-3.29,1.11,22.36,22.36,0,0,1-4.7.76l-1.64.09-.81,1.42-1,1.68a31.42,31.42,0,0,0-2.28,5.46,29.88,29.88,0,0,0-1.46,7l-.09,1.09.65.9A12.77,12.77,0,0,0,208,48.15a19.85,19.85,0,0,0,4.3,1.71c.81.17,1.51.3,2.07.38l.51.06.5-.1c4-.81,6.82-2.21,8.68-4.29a8.65,8.65,0,0,0,2.4-5.75,7.86,7.86,0,0,0-.15-1.5l-.3-1.49a12.13,12.13,0,0,0,1.35-2.32l.36-.8-.14-.87L227.42,32a10.81,10.81,0,0,0-1.58-4,10.49,10.49,0,0,0-3.9-3.81l-1.41-.8Z" transform="translate(0.36 -8.12)"/><path class="cls-1" d="M232.61,47.53a19.37,19.37,0,0,1-3.85-1.33,27.07,27.07,0,0,1-3-1.55L224,43.5l.11-.92a137.17,137.17,0,0,1,2.42-14.17l.84-3.91,1.48.32a26.11,26.11,0,0,1,3.79,1.12,16.45,16.45,0,0,1,2.48,1.13l.11.08.93.69,1.53-3.09,8.4,6.47-.76,1.17a8,8,0,0,0-.94,2.69,17.16,17.16,0,0,0-.4,3.11c0,.83,0,1.5,0,2l.11,1.85-1.83-.27a11.73,11.73,0,0,1-3.94-1.3,10.7,10.7,0,0,1-1.88-1.27,23.58,23.58,0,0,0-2,2.69c-.05,1.72-.08,3.12-.08,4.15v1.87Z" transform="translate(0.36 -8.12)"/><path class="cls-2" d="M228.52,26.29a25,25,0,0,1,3.58,1.05,16.31,16.31,0,0,1,2.23,1l.58.43a42.32,42.32,0,0,0-1.54,8.4q1.15-2.68,4.85-10.12l5.86,4.51a9.49,9.49,0,0,0-1.16,3.21,18.58,18.58,0,0,0-.43,3.41c0,.87,0,1.57,0,2.11a10,10,0,0,1-3.43-1.12A7.13,7.13,0,0,1,237,37.62l-.53-.72A28.5,28.5,0,0,0,233,41.5c-.07,1.92-.1,3.44-.1,4.56a17.2,17.2,0,0,1-3.55-1.22,28,28,0,0,1-2.83-1.46l-1-.63a134.14,134.14,0,0,1,2.4-14l.52-2.45m8.64-3.84-1.57,3.16a22,22,0,0,0-2.4-1.06,28,28,0,0,0-4-1.19l-2.94-.65-.64,2.95-.53,2.44a138.76,138.76,0,0,0-2.44,14.3l-.22,1.85,1.56,1,1,.62,0,0,0,0a30.15,30.15,0,0,0,3.15,1.63A20.33,20.33,0,0,0,232.29,49l3.65.81V46.06c0-.94,0-2.18.07-3.7.17-.27.42-.62.77-1.08l.87.52a13,13,0,0,0,4.45,1.47l3.65.55-.22-3.69c0-.48,0-1.13,0-1.94a15.47,15.47,0,0,1,.37-2.81,6.52,6.52,0,0,1,.73-2.17l1.51-2.33-2.19-1.69-5.86-4.51-2.89-2.23Z" transform="translate(0.36 -8.12)"/></svg>